<svg id="Layer_1" data-name="Layer 1" xmlns="http://www.w3.org/2000/svg" viewBox="0 0 690.93 172.7"><defs><style>.cls-1{fill:#fcfcfc;}</style></defs><path class="cls-1" d="M431,185.5c-34.6,0-62.6-26.4-62.5-58.8a55.23,55.23,0,0,1,8.4-29.1,61.81,61.81,0,0,1,23-21.5,65.62,65.62,0,0,1,31.4-7.9c24.2,0,46.1,13.2,56.3,33.7a51,51,0,0,1,6,23.5c.2,3.4-2.8,6.5-6.6,6.6H394.6a6,6,0,0,1-6.3-5.3v-.4a5.6,5.6,0,0,1,5.8-5.4h87.3c-3.4-26.1-28.6-44.6-56.5-41.4s-47.6,26.8-44.2,52.9a44.45,44.45,0,0,0,6.6,18.2A48.53,48.53,0,0,0,406,168.1a49.81,49.81,0,0,0,25.1,6.3,52.39,52.39,0,0,0,17.9-3.2,46.27,46.27,0,0,0,15.3-8.3,7.72,7.72,0,0,1,4.6-2,5.44,5.44,0,0,1,5.8,5.2v.4c0,2.7-2.3,4.7-6.9,7.7A62.59,62.59,0,0,1,431,185.5" transform="translate(-42.38 -14.3)"/><path class="cls-1" d="M569.3,185.5c-34.6,0-62.6-26.4-62.5-58.8a55.23,55.23,0,0,1,8.4-29.1,60.34,60.34,0,0,1,23-21.5c29.9-16.2,68-6.6,85.3,21.4a47.71,47.71,0,0,1,2.4,4.4,51,51,0,0,1,6,23.5c.2,3.4-2.8,6.5-6.6,6.6H533a6,6,0,0,1-6.3-5.2v-.4a5.6,5.6,0,0,1,5.8-5.4h87.3a46.56,46.56,0,0,0-4-13.5A48.49,48.49,0,0,0,598.5,88a51.73,51.73,0,0,0-28.9-8.5c-18.1,0-34.9,9-43.8,23.8a44,44,0,0,0,0,47.3,48.53,48.53,0,0,0,18.7,17.5,49.81,49.81,0,0,0,25.1,6.3,52.39,52.39,0,0,0,17.9-3.2,46.27,46.27,0,0,0,15.3-8.3,7.72,7.72,0,0,1,4.6-2,5.38,5.38,0,0,1,5.8,5.2v.3c0,2.7-2.3,4.7-6.9,7.7a64,64,0,0,1-37,11.4" transform="translate(-42.38 -14.3)"/><path class="cls-1" d="M727.2,183c-3.2,0-6-2.4-6-5.4V120.4a148,148,0,0,0-.6-16.3,28.22,28.22,0,0,0-2.4-8.6,27.19,27.19,0,0,0-10.7-11.6,30.46,30.46,0,0,0-15.9-4.4,31.82,31.82,0,0,0-17,4.7A27.23,27.23,0,0,0,663.7,97a29.78,29.78,0,0,0-2.1,8.3c-.5,5-.6,10-.6,15.1v56.9a5.82,5.82,0,0,1-6,5.6,5.69,5.69,0,0,1-6-5.6h0V76.5a5.82,5.82,0,0,1,6-5.6,5.69,5.69,0,0,1,6,5.6h0v4a39.81,39.81,0,0,1,10-7.2,44.85,44.85,0,0,1,20.7-5,42.76,42.76,0,0,1,19.9,4.9,40.38,40.38,0,0,1,14.9,13.5,37.87,37.87,0,0,1,5.4,12.6,89.46,89.46,0,0,1,1.4,17.9v59.9a5.82,5.82,0,0,1-5.5,5.9q-.45.3-.6,0" transform="translate(-42.38 -14.3)"/><path class="cls-1" d="M101.9,187h0a60.89,60.89,0,0,1-50.5-27.1c-6-8.9-9-17.8-9-26.4a5.83,5.83,0,0,1,3.5-5.7l2.1-1,2,1a7,7,0,0,1,3.7,6,41.38,41.38,0,0,0,6.1,18.6c8.6,13.8,24.5,22.2,41.6,22.1h2.3c13.5,0,24.7-4.7,34.1-14.6a41,41,0,0,0,12.1-29.5,41.87,41.87,0,0,0-6.3-22.1,49.6,49.6,0,0,0-17.5-16.2,48.67,48.67,0,0,0-22.2-5.9H102a6.07,6.07,0,0,1-6.7-5.6V80a6.41,6.41,0,0,1,6.4-6.2h.6a63.39,63.39,0,0,1,28.5,7.6c18.8,10,30.3,28.8,30.3,49.2a51.5,51.5,0,0,1-6.4,25.1,59.75,59.75,0,0,1-17.6,19.9A62.3,62.3,0,0,1,101.9,187Z" transform="translate(-42.38 -14.3)"/><path class="cls-1" d="M98.7,110h-.3a51.81,51.81,0,0,1-22.8-6.2A47.44,47.44,0,0,1,59.4,89.9a44.1,44.1,0,0,1-9.5-27.7A44.08,44.08,0,0,1,65,28.4a51.28,51.28,0,0,1,35.1-14.1h.2a52.33,52.33,0,0,1,43.5,24.1c4.3,7,6.4,13.3,6.4,18.9a5.68,5.68,0,0,1-3.7,5.3l-2.1.9-2-1a7.06,7.06,0,0,1-3.8-6,28.08,28.08,0,0,0-4.3-11.8c-7.5-11.9-18.4-17.9-33.2-18.2H99.2a37.82,37.82,0,0,0-28.4,12,32.53,32.53,0,0,0-9.6,23.7,33,33,0,0,0,11,25.1,36.5,36.5,0,0,0,26,10.5c3.5,0,6.6,2.7,6.6,6A6.22,6.22,0,0,1,99,110Z" transform="translate(-42.38 -14.3)"/><path class="cls-1" d="M321.3,183c-3.2,0-6-2.4-6-5.4V81.8h-11a6,6,0,0,1-6.3-5.3c-.2-3.2,2.3-5.7,5.7-5.9h11.6V57.8a5.79,5.79,0,0,1,5.7-5.9,6,6,0,0,1,6.3,5.3V70.6h40.6a6,6,0,0,1,6.3,5.3c.2,3.2-2.3,5.7-5.7,5.9H327.3v95.4a5.82,5.82,0,0,1-5.5,5.9,1.09,1.09,0,0,0-.5-.1" transform="translate(-42.38 -14.3)"/><path class="cls-1" d="M317.7,183.3l1.7-11.5,3.5-.4a32.79,32.79,0,0,0,5.2-.9,48.42,48.42,0,0,0,16.2-6.3,7.36,7.36,0,0,1,4.3-1.4h.6a5.49,5.49,0,0,1,5.1,5.9v.3c-.5,2.7-2.9,4.4-7.8,6.9a64.41,64.41,0,0,1-23,6.7Z" transform="translate(-42.38 -14.3)"/><path class="cls-1" d="M237.1,185.5c-17,0-31.1-5.6-41.8-16.5a54.22,54.22,0,0,1-16.1-38.9c0-15.8,5.4-29,15.8-39.4,10.7-10.8,24.8-16.1,41.5-16.1,21.3,0,38.1,8.9,49.6,26.5,5.4,8.2,8,19.5,8,34.6v43.6H282.5V136c0-12.6-2.1-22.2-6.3-28.5-9.5-14.3-22.4-21.2-39.7-21.2-13.6,0-24.5,4.2-33.1,12.8s-12.6,18.8-12.6,31.7a43,43,0,0,0,12.9,31.4c8.6,8.7,19.4,13,33.2,13a47.26,47.26,0,0,0,30-10.3v-8.3l1.2-1.3.6-.6.8-.9,8-8.5v24.4L276,171a57.28,57.28,0,0,1-38.9,14.5" transform="translate(-42.38 -14.3)"/></svg>