<?xml version="1.0" encoding="utf-8"?>
<!-- Generator: Adobe Illustrator 24.1.0, SVG Export Plug-In . SVG Version: 6.00 Build 0)  -->
<svg version="1.1" id="Layer_1" xmlns="http://www.w3.org/2000/svg" xmlns:xlink="http://www.w3.org/1999/xlink" x="0px" y="0px"
	 viewBox="0 0 775.3 207.1" style="enable-background:new 0 0 775.3 207.1;" xml:space="preserve">
<style type="text/css">
	.st0{fill:#231F20;}
</style>
<path class="st0" d="M431,185.5c-34.6,0-62.6-26.4-62.5-58.8c0-10.2,2.9-20.2,8.4-29.1c5.5-8.9,13.5-16.3,23-21.5
	c9.5-5.2,20.4-7.9,31.4-7.9c24.2,0,46.1,13.2,56.3,33.7c3.8,7.3,6,15.3,6,23.5c0.2,3.4-2.8,6.5-6.6,6.6c-0.3,0-0.5,0-0.8,0h-91.6
	c-3.2,0.1-6-2.2-6.3-5.3c0-0.1,0-0.3,0-0.4c0-3,2.6-5.4,5.8-5.4c0.2,0,0.3,0,0.5,0h86.8c-3.4-26.1-28.6-44.6-56.5-41.4
	c-27.9,3.2-47.6,26.8-44.2,52.9c0.8,6.5,3.1,12.6,6.6,18.2c4.4,7.3,10.9,13.3,18.7,17.5c7.7,4.2,16.2,6.5,25.1,6.3
	c6.1,0,12.1-1.1,17.9-3.2c5.7-1.9,10.9-4.6,15.3-8.3c1.2-1.1,2.9-1.9,4.6-2c3.1-0.1,5.8,2.2,5.8,5.2c0,0.1,0,0.3,0,0.4
	c0,2.7-2.3,4.7-6.9,7.7C457.2,181.7,444.4,185.6,431,185.5"/>
<path class="st0" d="M569.3,185.5c-34.6,0-62.6-26.4-62.5-58.8c0-10.2,2.9-20.2,8.4-29.1c5.5-8.9,13.3-16.3,23-21.5
	c29.9-16.2,68-6.6,85.3,21.4c0.9,1.4,1.7,3,2.4,4.4c3.8,7.3,6,15.3,6,23.5c0.2,3.4-2.8,6.5-6.6,6.6c-0.3,0-0.5,0-0.8,0H533
	c-3.2,0.1-6-2.2-6.3-5.2c0-0.1,0-0.3,0-0.4c0-3,2.6-5.4,5.8-5.4c0.2,0,0.3,0,0.5,0h86.8c-0.6-4.6-2-9.2-4-13.5
	c-3.8-7.9-9.8-14.6-17.3-19.5c-8.4-5.6-18.7-8.6-28.9-8.5c-18.1,0-34.9,9-43.8,23.8c-9.2,14.6-9.2,32.7,0,47.3
	c4.4,7.3,10.9,13.3,18.7,17.5c7.7,4.2,16.2,6.5,25.1,6.3c6.1,0,12.1-1.1,17.9-3.2c5.7-1.9,10.9-4.6,15.3-8.3c1.2-1.1,2.9-1.9,4.6-2
	c3.2-0.1,5.8,2.2,5.8,5.2c0,0.1,0,0.3,0,0.3c0,2.7-2.3,4.7-6.9,7.7C595.5,181.6,582.6,185.6,569.3,185.5"/>
<path class="st0" d="M727.2,183c-3.2,0-6-2.4-6-5.4c0-0.1,0-0.3,0-0.4v-56.8c0.2-5.4-0.2-10.9-0.6-16.3c-0.3-3-1.2-5.9-2.4-8.6
	c-2.3-4.7-6-8.9-10.7-11.6c-4.7-2.9-10.3-4.4-15.9-4.4c-6-0.1-11.9,1.6-17,4.7c-4.9,3-8.7,7.5-10.9,12.8c-1.1,2.7-1.8,5.4-2.1,8.3
	c-0.5,5-0.6,10-0.6,15.1v56.9c0,3-2.6,5.6-6,5.6c-3.4,0-6-2.4-6-5.6l0,0V76.5c0-3,2.6-5.6,6-5.6c3.4,0,6,2.4,6,5.6l0,0v4
	c2.9-2.9,6.3-5.3,10-7.2c6.3-3.3,13.5-5,20.7-5c7,0,13.8,1.7,19.9,4.9c6.1,3.2,11.2,7.9,14.9,13.5c2.6,3.9,4.4,8.2,5.4,12.6
	c1.1,5.9,1.5,11.9,1.4,17.9v59.9c0.2,3-2.3,5.6-5.5,5.9C727.5,183.2,727.3,183.2,727.2,183"/>
<path class="st0" d="M101.9,187L101.9,187c-9.8,0-19.4-2.4-28-6.9c-9.2-4.9-17-11.8-22.5-20.2c-6-8.9-9-17.8-9-26.4
	c-0.2-2.4,1.2-4.6,3.5-5.7l2.1-1l2,1c2.3,1.3,3.7,3.6,3.7,6c0.5,6.6,2.6,12.9,6.1,18.6c8.6,13.8,24.5,22.2,41.6,22.1h0.3
	c0.3,0,0.5,0,0.8,0h0.2h0.8h0.2c13.5,0,24.7-4.7,34.1-14.6c8-8,12.2-18.6,12.1-29.5c0-7.7-2.1-15.3-6.3-22.1
	c-4.3-6.6-10.3-12.2-17.5-16.2c-6.7-3.7-14.4-5.7-22.2-5.9H102c-3.5,0.3-6.6-2.3-6.7-5.6c0-0.1,0-0.4,0-0.6c0-3.3,2.9-6.2,6.4-6.2
	h0.3h0.3c10.1,0.3,19.9,2.9,28.5,7.6c18.8,10,30.3,28.8,30.3,49.2c0,8.7-2.1,17.4-6.4,25.1c-4.1,7.7-10.3,14.6-17.6,19.9
	C126.8,182.9,114.6,186.8,101.9,187L101.9,187z"/>
<path class="st0" d="M98.7,110h-0.3c-8-0.3-15.8-2.4-22.8-6.2c-6.4-3.4-12.1-8.2-16.2-13.9c-6.3-8-9.6-17.8-9.5-27.7
	C49.7,49.5,55,37.3,65,28.4c9.2-8.9,21.7-13.9,35.1-14.1h0.2c8.7,0.1,17.3,2.3,24.7,6.5c7.8,4.3,14.2,10.3,18.8,17.6
	c4.3,7,6.4,13.3,6.4,18.9c0,2.3-1.4,4.4-3.7,5.3l-2.1,0.9l-2-1c-2.3-1.3-3.7-3.4-3.8-6c-0.5-4.2-2-8.2-4.3-11.8
	c-7.5-11.9-18.4-17.9-33.2-18.2h-0.3h-0.8h-0.2h-0.6l0,0C88.2,26.4,78,30.7,70.8,38.5c-6.4,6.5-9.8,14.9-9.6,23.7
	c-0.2,9.5,3.8,18.5,11,25.1c6.7,6.7,16.2,10.6,26,10.5c3.5,0,6.6,2.7,6.6,6c0,3.2-2.4,5.9-5.8,6.2L98.7,110z"/>
<path class="st0" d="M321.3,183c-3.2,0-6-2.4-6-5.4c0-0.1,0-0.3,0-0.4V81.8h-11c-3.2,0.1-6.1-2.2-6.3-5.3c-0.2-3.2,2.3-5.7,5.7-5.9
	c0.2,0,0.5,0,0.6,0h11V57.8c-0.2-3,2.3-5.7,5.7-5.9c3.2-0.1,6.1,2.2,6.3,5.3c0,0.1,0,0.4,0,0.6v12.8h40.6c3.2-0.1,6.1,2.2,6.3,5.3
	c0.2,3.2-2.3,5.7-5.7,5.9c-0.2,0-0.5,0-0.6,0h-40.6v95.4c0.2,3-2.3,5.6-5.5,5.9C321.6,183,321.4,183,321.3,183"/>
<path class="st0" d="M317.7,183.3l1.7-11.5l3.5-0.4c2-0.3,3.7-0.4,5.2-0.9c5.8-1.1,11.3-3.3,16.2-6.3c1.2-0.9,2.8-1.4,4.3-1.4h0.6
	c3.1,0.3,5.4,2.9,5.1,5.9c0,0.1,0,0.3,0,0.3c-0.5,2.7-2.9,4.4-7.8,6.9c-7,3.6-14.9,5.9-23,6.7L317.7,183.3z"/>
<path class="st0" d="M237.1,185.5c-17,0-31.1-5.6-41.8-16.5c-10.6-10.6-16.2-24.5-16.1-38.9c0-15.8,5.4-29,15.8-39.4
	c10.7-10.8,24.8-16.1,41.5-16.1c21.3,0,38.1,8.9,49.6,26.5c5.4,8.2,8,19.5,8,34.6v43.6h-9.2l0,0h-2.4V136c0-12.6-2.1-22.2-6.3-28.5
	c-9.5-14.3-22.4-21.2-39.7-21.2c-13.6,0-24.5,4.2-33.1,12.8s-12.6,18.8-12.6,31.7c-0.3,11.6,4.4,22.9,12.9,31.4
	c8.6,8.7,19.4,13,33.2,13c11,0.1,21.7-3.6,30-10.3v-8.3l1.2-1.3l0.6-0.6l0.8-0.9l8-8.5v24.4l-1.5,1.3
	C265.8,180.3,251.8,185.6,237.1,185.5"/>
</svg>
